<?xml version="1.0" encoding="utf-8"?>
<!-- Generator: Adobe Illustrator 24.1.2, SVG Export Plug-In . SVG Version: 6.00 Build 0)  -->
<svg version="1.1" id="Layer_1" xmlns="http://www.w3.org/2000/svg" xmlns:xlink="http://www.w3.org/1999/xlink" x="0px" y="0px"
	 viewBox="0 0 323.5 125" style="enable-background:new 0 0 323.5 125;" xml:space="preserve">
<style type="text/css">
	.st0{clip-path:url(#SVGID_2_);fill:url(#SVGID_3_);}
	.st1{clip-path:url(#SVGID_5_);fill:url(#SVGID_6_);}
	.st2{fill:#FFFFFF;}
	.st3{fill:#010B4C;}
</style>
<g>
	<defs>
		<path id="SVGID_1_" d="M312.72,109.2V31.99c0-9.85-7.24-18.01-16.68-19.46c-0.97-0.14-1.98-0.22-3-0.22H217.9
			c-10.87,0-19.68,8.82-19.68,19.68v45.47c0,0.15,0,0.31,0.01,0.47c0.24,10.66,8.95,19.22,19.67,19.22h69.67l20.39,14.52
			C309.95,113.08,312.72,111.65,312.72,109.2"/>
	</defs>
	<clipPath id="SVGID_2_">
		<use xlink:href="#SVGID_1_"  style="overflow:visible;"/>
	</clipPath>
	<linearGradient id="SVGID_3_" gradientUnits="userSpaceOnUse" x1="236.6052" y1="43.9871" x2="109.1793" y2="-82.3569">
		<stop  offset="0" style="stop-color:#30D5EF"/>
		<stop  offset="0.1169" style="stop-color:#30CDEE"/>
		<stop  offset="0.3016" style="stop-color:#31B6EA"/>
		<stop  offset="0.5311" style="stop-color:#3291E3"/>
		<stop  offset="0.7938" style="stop-color:#335EDA"/>
		<stop  offset="0.99" style="stop-color:#3433D3"/>
		<stop  offset="1" style="stop-color:#3433D3"/>
	</linearGradient>
	<rect x="198.22" y="12.31" class="st0" width="114.51" height="100.78"/>
</g>
<g>
	<defs>
		<path id="SVGID_4_" d="M312.72,109.41V31.99c0-9.85-7.24-18.01-16.68-19.46c-47.22,0-97.82,15.26-97.82,64.93
			c0,0.15,0,0.31,0.01,0.47c0.24,10.66,8.95,19.22,19.67,19.22h64.02c3.67,0,7.25,1.14,10.24,3.27l15.96,11.37
			C310.05,113.15,312.72,111.77,312.72,109.41"/>
	</defs>
	<clipPath id="SVGID_5_">
		<use xlink:href="#SVGID_4_"  style="overflow:visible;"/>
	</clipPath>
	<linearGradient id="SVGID_6_" gradientUnits="userSpaceOnUse" x1="187.5824" y1="-15.8851" x2="291.9303" y2="105.1172">
		<stop  offset="0" style="stop-color:#30D5EF"/>
		<stop  offset="0.1169" style="stop-color:#30CDEE"/>
		<stop  offset="0.3016" style="stop-color:#31B6EA"/>
		<stop  offset="0.5311" style="stop-color:#3291E3"/>
		<stop  offset="0.7938" style="stop-color:#335EDA"/>
		<stop  offset="0.99" style="stop-color:#3433D3"/>
		<stop  offset="1" style="stop-color:#3433D3"/>
	</linearGradient>
	<rect x="198.22" y="12.53" class="st1" width="114.51" height="100.62"/>
</g>
<rect x="219.28" y="24.33" class="st2" width="10.14" height="60.66"/>
<path class="st2" d="M285.27,85.81l-3.95-3.85c-3.76,2.49-7.74,3.73-11.96,3.73h-9.1c-4.39,0-8.25-0.94-11.57-2.82
	c-3.32-1.88-5.91-4.53-7.76-7.97c-1.85-3.44-2.77-7.41-2.77-11.92V46.34c0-4.5,0.92-8.48,2.77-11.92c1.85-3.44,4.46-6.09,7.84-7.97
	c3.38-1.88,7.26-2.82,11.66-2.82h9.19c4.39,0,8.26,0.94,11.61,2.82c3.35,1.88,5.95,4.54,7.8,7.97c1.85,3.44,2.77,7.41,2.77,11.92
	v16.12c0,4.68-1.33,8.98-3.99,12.91l10.64,10.55L285.27,85.81z M274.66,75.37l-8.32-8.23l13.11,0.11l1.19,1.01
	c0.69-1.73,1.04-3.67,1.04-5.81V46.69c0-4.22-1.11-7.63-3.34-10.23c-2.23-2.6-5.16-3.9-8.8-3.9h-9.1c-3.58,0-6.5,1.3-8.75,3.9
	c-2.25,2.6-3.38,6.01-3.38,10.23v15.94c0,4.22,1.1,7.63,3.29,10.23c2.19,2.6,5.11,3.9,8.75,3.9h9.01
	C271.16,76.76,272.92,76.3,274.66,75.37z"/>
<path class="st3" d="M94.86,41.06h-5.55c-1.85,0-3.74,0.51-5.68,1.52c-1.94,1.01-3.57,2.36-4.9,4.03V24.33h-9.97v60.66h9.97V58.82
	c0.52-2.71,1.67-4.91,3.47-6.59c1.79-1.67,3.81-2.51,6.07-2.51h5.55c1.73,0,3.13,0.65,4.2,1.95c1.07,1.3,1.6,2.99,1.6,5.07v28.25
	h9.96V56.48c0-4.62-1.34-8.35-4.03-11.18C102.88,42.47,99.31,41.06,94.86,41.06"/>
<path class="st3" d="M152.84,45c-2.95-2.63-6.85-3.95-11.7-3.95h-1.22h-6.06h-14.44l2.5,7.51v0l0.29,0.86l0.01,0.04h17.7h1.22
	c1.85,0,3.35,0.55,4.51,1.65c1.16,1.1,1.74,2.55,1.74,4.33v5.37c-1.45-0.75-3.1-1.35-4.94-1.82c-1.85-0.46-3.58-0.69-5.2-0.69h-5.37
	c-4.57,0-8.25,1.1-11.05,3.29c-2.8,2.2-4.2,5.11-4.2,8.75v3.12c0,3.69,1.34,6.66,4.03,8.88c2.69,2.23,6.22,3.34,10.62,3.34h5.37
	c2.02,0,4.07-0.56,6.15-1.69c2.08-1.13,3.81-2.61,5.2-4.47V85h9.27V55.44C157.26,51.11,155.78,47.63,152.84,45 M147.38,70.78
	c-0.76,2.14-2.05,3.85-3.9,5.16c-1.86,1.3-3.94,1.95-6.24,1.95h-4.94c-1.79,0-3.24-0.44-4.33-1.31c-1.1-0.87-1.65-2.02-1.65-3.46
	V70.7c0-1.39,0.53-2.52,1.6-3.39c1.07-0.87,2.47-1.3,4.21-1.3h5.46c1.96,0,3.84,0.24,5.63,0.74c1.79,0.49,3.17,1.14,4.16,1.95V70.78
	z"/>
<path class="st3" d="M191.05,50.33v-8.58h-11.27V28.67l-9.71,2.8v10.29h-7.89v8.58h7.63V71.3c0,4.74,1.13,8.2,3.38,10.4
	c2.25,2.2,5.83,3.29,10.74,3.29h7.11v-8.58h-6.59c-1.62,0-2.8-0.43-3.55-1.3c-0.75-0.87-1.13-2.25-1.13-4.16V50.33H191.05z"/>
<path class="st3" d="M42.81,32.61h16.57H60l2.8-8.97H41.75h-7.02h-2.16c-4.34,0-8.14,0.94-11.44,2.82
	c-3.29,1.87-5.85,4.53-7.68,7.97c-1.82,3.44-2.72,7.42-2.72,11.92v16.64c0,4.5,0.9,8.48,2.69,11.91c1.79,3.44,4.3,6.1,7.54,7.97
	c3.24,1.87,6.99,2.82,11.27,2.82h2.51h6.85H62.8L60,76.71h-0.88H42.64h-7.92v0.05h-2.51c-3.41,0-6.16-1.29-8.24-3.85
	c-2.08-2.57-3.12-6-3.12-10.27V46.69c0-4.22,1.06-7.62,3.2-10.22c2.14-2.6,4.97-3.9,8.5-3.9h2.16v0.05H42.81z"/>
</svg>
